<?xml version="1.0" encoding="UTF-8"?>
<svg version="1.1" xmlns="http://www.w3.org/2000/svg" width="428" height="261">
    <path d="M0 0 C141.24 0 282.48 0 428 0 C428 86.13 428 172.26 428 261 C286.76 261 145.52 261 0 261 C0 174.87 0 88.74 0 0 Z " fill="#000" transform="translate(0,0)"/>
    <path d="M0 0 C-0.66 0.639375 -1.32 1.27875 -2 1.9375 C-3.0033796 2.95501171 -4.00289552 3.97633826 -5 5 C-5.90685547 5.91265625 -5.90685547 5.91265625 -6.83203125 6.84375 C-19.27808678 20.00171008 -25.6710151 35.68277315 -25.5456543 53.81103516 C-25.23004921 62.09004764 -23.06674389 69.35437811 -20 77 C-19.62746094 77.93328125 -19.25492188 78.8665625 -18.87109375 79.828125 C-12.05898795 94.92394135 0.42650821 104.39192869 15.171875 111.02734375 C32.87297514 117.11515305 51.50435402 115.22254336 68.26171875 107.49609375 C82.73946286 99.80305431 91.9571199 87.46525739 97.9375 72.5 C102.83198301 56.37699713 101.34257043 37.32746702 93.875 22.375 C90.33922449 16.11997341 85.9624063 11.14791681 81 6 C79.29605251 4.02721625 77.64791654 2.02002673 76 0 C87.01199656 0.75231533 97.45345565 3.56843088 108.11376953 6.29052734 C110.51700184 6.88127283 112.91033539 7.39750218 115.33984375 7.86328125 C122.93547403 9.5598997 122.93547403 9.5598997 125.73828125 13.3515625 C127.18981654 16.52866925 128.11053173 19.62303573 129 23 C129.58007812 24.7325 129.58007812 24.7325 130.171875 26.5 C137.25633286 49.7913683 133.38572847 75.75876914 122.22265625 97.13671875 C111.26456552 116.81446512 94.18264146 130.61704586 74 140 C72.34484375 140.77537109 72.34484375 140.77537109 70.65625 141.56640625 C49.13382604 150.00521992 23.70335661 149.24595414 2.41699219 140.52001953 C-22.97752033 129.38942617 -41.75547478 110.74754345 -52 85 C-59.67686876 63.06943284 -59.81145033 37.67728417 -51.16015625 15.91796875 C-48.60341728 11.69117132 -44.76361086 10.40624438 -40.1953125 9.0625 C-39.0604541 8.72605469 -37.9255957 8.38960937 -36.75634766 8.04296875 C-35.55800293 7.69878906 -34.3596582 7.35460937 -33.125 7 C-31.90731934 6.64550781 -30.68963867 6.29101562 -29.43505859 5.92578125 C-8.01862137 -0.23326899 -8.01862137 -0.23326899 0 0 Z " fill="#FBFBFB" transform="translate(177,67)"/>
    <path d="M0 0 C4.44376482 2.96250988 8.30552917 5.92118324 12.25 9.4375 C20.40397693 16.56213004 29.14415871 22.78607124 38 29 C39.1108518 29.78751402 40.22154619 30.57525017 41.33203125 31.36328125 C56.05871682 41.70409897 71.11054997 51.41499827 86.98144531 59.90625 C88.79270356 60.88767682 90.58162022 61.91007382 92.3671875 62.9375 C112.71684996 74.42907409 135.42596632 83.12847104 158 89 C158.78052734 89.20415527 159.56105469 89.40831055 160.36523438 89.61865234 C172.74785866 92.77808159 185.3293369 94.45140305 198 96 C198 96.66 198 97.32 198 98 C132.66 98 67.32 98 0 98 C0 65.66 0 33.32 0 0 Z " fill="#000" transform="translate(0,163)"/>
    <path d="M0 0 C63.03 0 126.06 0 191 0 C191.33 0.66 191.66 1.32 192 2 C191.01386719 2.07476562 190.02773437 2.14953125 189.01171875 2.2265625 C130.08180516 7.37577825 69.92904601 36.33424434 29.41796875 79.70703125 C28 81 28 81 26 81 C25.773125 81.5775 25.54625 82.155 25.3125 82.75 C23.65273655 85.59530878 21.57933333 86.93653334 19 89 C17.26727047 90.85803915 15.62031921 92.77657865 13.96875 94.70703125 C11.76410466 97.27474319 9.51295842 99.79606085 7.25 102.3125 C6.14398438 103.54419922 6.14398438 103.54419922 5.015625 104.80078125 C3.38858869 106.57601661 1.70274892 108.29725108 0 110 C0 73.7 0 37.4 0 0 Z " fill="#000" transform="translate(0,0)"/>
    <path d="M0 0 C0.33 0 0.66 0 1 0 C1 32.01 1 64.02 1 97 C-61.04 97 -123.08 97 -187 97 C-187 96.34 -187 95.68 -187 95 C-185.50726563 94.6604126 -185.50726563 94.6604126 -183.984375 94.31396484 C-173.44255755 91.88951961 -162.99062338 89.19742265 -152.56152344 86.328125 C-150.00374955 85.62602923 -147.44339848 84.93394688 -144.8828125 84.2421875 C-129.97069849 80.17685735 -115.37725003 75.79912883 -101.75 68.375 C-100.78602295 67.86066406 -99.8220459 67.34632813 -98.82885742 66.81640625 C-89.63976777 61.88073251 -80.55818856 56.75624104 -71.55419922 51.49121094 C-69.85576436 50.49961849 -68.15426627 49.51325376 -66.44970703 48.53222656 C-53.64047993 41.15848576 -41.71180318 33.00945358 -30 24 C-29.20223145 23.38769531 -28.40446289 22.77539062 -27.58251953 22.14453125 C-22.36236525 18.12918984 -17.17091963 14.07850876 -12 10 C-11.43297363 9.55301758 -10.86594727 9.10603516 -10.28173828 8.64550781 C-4.96772731 4.51996691 -4.96772731 4.51996691 0 0 Z " fill="#000" transform="translate(427,164)"/>
    <path d="M0 0 C61.38 0 122.76 0 186 0 C186 35.64 186 71.28 186 108 C182.63059941 104.63059941 179.42286768 101.28663595 176.25 97.75 C171.41190668 92.42134572 166.39475295 87.28307472 161.3125 82.1875 C160.6122168 81.48270508 159.91193359 80.77791016 159.19042969 80.05175781 C154.62296463 75.497177 149.89382143 71.19976282 145 67 C143.99015542 66.1115061 142.98098221 65.22224821 141.97265625 64.33203125 C123.27930592 48.14785546 102.32774741 35.52448578 80 25 C78.93531494 24.49557373 78.93531494 24.49557373 77.84912109 23.98095703 C67.4700354 19.10409244 56.99052803 15.01852235 46.03417969 11.63183594 C44.21739412 11.06752472 42.40882266 10.47692331 40.6015625 9.8828125 C27.12647195 5.67388591 12.95025493 3.94244056 -1 2 C-0.67 1.34 -0.34 0.68 0 0 Z " fill="#000" transform="translate(242,0)"/>
    <path d="M0 0 C3.64262249 0.58394722 6.43723548 1.56741684 9.66796875 3.3359375 C10.99405151 4.05813477 10.99405151 4.05813477 12.34692383 4.79492188 C13.28431396 5.31634766 14.2217041 5.83777344 15.1875 6.375 C16.65255981 7.18420898 16.65255981 7.18420898 18.1472168 8.00976562 C37.51511133 18.78633755 56.12509871 30.56703907 73 45 C46.51489615 71.62376931 1.54586998 105.26722777 -36 113 C-35.195625 112.071875 -34.39125 111.14375 -33.5625 110.1875 C-32.73878906 109.21683594 -32.73878906 109.21683594 -31.8984375 108.2265625 C-30.58586393 106.68712436 -29.25654064 105.16186792 -27.9140625 103.6484375 C-4.14637442 76.04456117 3.12087616 40.64641276 0.5 5.1875 C0.34213001 3.45750803 0.17951995 1.72787955 0 0 Z " fill="#FCFCFC" transform="translate(341,96)"/>
    <path d="M0 0 C-0.15984375 1.24910156 -0.3196875 2.49820313 -0.484375 3.78515625 C-2.21692425 19.51633482 -1.67041569 35.597662 2 51 C2.18804199 51.79325684 2.37608398 52.58651367 2.56982422 53.40380859 C6.79482146 70.49538456 14.12519697 85.92323553 25.1875 99.65234375 C27 102 27 102 28.1171875 104.23828125 C29.28116142 106.56107877 30.64017257 107.05606903 33 108 C32.67 108.66 32.34 109.32 32 110 C9.36140007 99.69637085 -12.02083117 87.84931647 -32 73 C-33.43869444 71.94386376 -34.87749821 70.88787645 -36.31640625 69.83203125 C-43.12318008 64.808316 -49.7467025 59.70648449 -56 54 C-58.10919711 52.18941682 -60.22065409 50.38159372 -62.3359375 48.578125 C-64 47 -64 47 -66 44 C-49.00636393 27.82336567 -29.0956906 15.15876892 -8.75 3.625 C-8.08871094 3.24964111 -7.42742187 2.87428223 -6.74609375 2.48754883 C-2.2575729 0 -2.2575729 0 0 0 Z " fill="#FBFBFB" transform="translate(89,97)"/>
    <path d="M0 0 C0.23074219 0.71285156 0.46148437 1.42570312 0.69921875 2.16015625 C4.13142303 12.23971269 7.52499326 17.89807329 17 23 C13.49102731 27.18423892 9.91939465 31.19588166 6 35 C-2.951148 31.88183579 -7.65872284 24.52959484 -12.06640625 16.515625 C-13 14 -13 14 -12.9609375 12 C-11.52658001 9.01467059 -9.41737973 7.06095801 -7.0625 4.75 C-6.16660156 3.85796875 -5.27070313 2.9659375 -4.34765625 2.046875 C-2 0 -2 0 0 0 Z " fill="#F6F6F6" transform="translate(184,124)"/>
    <path d="M0 0 C5.75 1.75 5.75 1.75 8 4 C8.61875 3.835 9.2375 3.67 9.875 3.5 C12 3 12 3 14.125 3.6875 C16.3382132 5.23674924 16.809632 6.61926401 18 9 C20.0335948 10.26804566 20.0335948 10.26804566 22 11 C21.67 11.66 21.34 12.32 21 13 C17.86542015 11.60387404 14.74438435 10.17971783 11.625 8.75 C10.73554687 8.35425781 9.84609375 7.95851562 8.9296875 7.55078125 C7.65351562 6.96103516 7.65351562 6.96103516 6.3515625 6.359375 C5.56604004 6.00327148 4.78051758 5.64716797 3.97119141 5.28027344 C1.6732473 3.78777667 0.98958073 2.51808805 0 0 Z " fill="#E3E3E3" transform="translate(100,194)"/>
    <path d="M0 0 C5.75 1.75 5.75 1.75 8 4 C10.60280568 3.67958603 10.60280568 3.67958603 13 3 C13 4.98 13 6.96 13 9 C11.01501949 8.07487334 9.03713982 7.13449763 7.0625 6.1875 C5.96035156 5.66542969 4.85820313 5.14335937 3.72265625 4.60546875 C1 3 1 3 0 0 Z " fill="#EDEDED" transform="translate(100,194)"/>
    <path d="M0 0 C2.475 0.495 2.475 0.495 5 1 C5 2.98 5 4.96 5 7 C4.01 7.33 3.02 7.66 2 8 C2 9.65 2 11.3 2 13 C1.67 13 1.34 13 1 13 C0.67 8.71 0.34 4.42 0 0 Z " fill="#EFEFEF" transform="translate(341,96)"/>
    <path d="M0 0 C0.33 0.66 0.66 1.32 1 2 C-0.65 3.98 -2.3 5.96 -4 8 C-3.34 8.33 -2.68 8.66 -2 9 C-2 9.99 -2 10.98 -2 12 C-2.99 12 -3.98 12 -5 12 C-5.66 11.34 -6.32 10.68 -7 10 C-6.67861144 6.63567724 -5.35354137 5.01182596 -2.9375 2.75 C-2.38964844 2.22921875 -1.84179688 1.7084375 -1.27734375 1.171875 C-0.64505859 0.59179688 -0.64505859 0.59179688 0 0 Z " fill="#0D0D0D" transform="translate(200,148)"/>
    <path d="M0 0 C0.66 0.33 1.32 0.66 2 1 C-0.07143201 5.03384128 -1.96615872 6.92856799 -6 9 C-6.66 8.34 -7.32 7.68 -8 7 C-5.36 4.69 -2.72 2.38 0 0 Z " fill="#171717" transform="translate(403,150)"/>
    <path d="M0 0 C0.66 0.33 1.32 0.66 2 1 C1.67 2.32 1.34 3.64 1 5 C0.38125 5.12375 -0.2375 5.2475 -0.875 5.375 C-3.19120832 5.87197356 -3.19120832 5.87197356 -5 8 C-5.33 7.34 -5.66 6.68 -6 6 C-4 4 -2 2 0 0 Z " fill="#EDEDED" transform="translate(49,120)"/>
    <path d="M0 0 C0.33 1.32 0.66 2.64 1 4 C-3.39453125 8.00390625 -3.39453125 8.00390625 -5 9 C-5.99 8.67 -6.98 8.34 -8 8 C-5.33333333 5.33333333 -2.66666667 2.66666667 0 0 Z " fill="#D6D6D6" transform="translate(313,200)"/>
    <path d="M0 0 C-1.65 1.65 -3.3 3.3 -5 5 C-6.32 3.68 -7.64 2.36 -9 1 C-5.92677456 0.08941469 -3.19902639 -0.08886184 0 0 Z " fill="#EAEAEA" transform="translate(177,67)"/>
    <path d="M0 0 C-0.33 2.97 -0.66 5.94 -1 9 C-1.99 8.34 -2.98 7.68 -4 7 C-4.1875 3.875 -4.1875 3.875 -4 1 C-2 0 -2 0 0 0 Z " fill="#E4E4E4" transform="translate(89,97)"/>
    <path d="M0 0 C1.98 0.495 1.98 0.495 4 1 C2.69593116 3.01920337 1.36176581 5.01924973 0 7 C-0.33 7 -0.66 7 -1 7 C-0.67 4.69 -0.34 2.38 0 0 Z " fill="#F2F2F2" transform="translate(6,97)"/>
    <path d="M0 0 C0.66 0.33 1.32 0.66 2 1 C-0.12780579 3.34058637 -2.11562221 4.70700306 -5 6 C-5.66 5.34 -6.32 4.68 -7 4 C-1.7265625 0.77734375 -1.7265625 0.77734375 0 0 Z " fill="#1E1E1E" transform="translate(93,31)"/>
    <path d="M0 0 C2 2 2 2 2 5 C0.35 5.66 -1.3 6.32 -3 7 C-2.38722388 4.03824877 -1.74627478 2.61941217 0 0 Z " transform="translate(19,88)"/>
</svg>
